<svg xmlns="http://www.w3.org/2000/svg" width="12" height="12" viewBox="0 0 12 12">
  <path id="icons8-calendar" d="M8.167,6A2.174,2.174,0,0,0,6,8.167v7.667A2.174,2.174,0,0,0,8.167,18h7.667A2.174,2.174,0,0,0,18,15.833V8.167A2.174,2.174,0,0,0,15.833,6Zm0,1h7.667A1.159,1.159,0,0,1,17,8.167v.5H7v-.5A1.159,1.159,0,0,1,8.167,7ZM7,9.667H17v6.167A1.159,1.159,0,0,1,15.833,17H8.167A1.159,1.159,0,0,1,7,15.833ZM9.167,11a.833.833,0,1,0,.833.833A.833.833,0,0,0,9.167,11ZM12,11a.833.833,0,1,0,.833.833A.833.833,0,0,0,12,11Zm2.833,0a.833.833,0,1,0,.833.833A.833.833,0,0,0,14.833,11ZM9.167,14a.833.833,0,1,0,.833.833A.833.833,0,0,0,9.167,14ZM12,14a.833.833,0,1,0,.833.833A.833.833,0,0,0,12,14Z" transform="translate(-6 -6)" fill="#495670"/>
</svg>
