<svg xmlns="http://www.w3.org/2000/svg" width="35" height="34" viewBox="0 0 35 34">
  <g id="icons8-tiktok_verified_account" transform="translate(0.208 -0.412)">
    <ellipse id="Ellipse_79" data-name="Ellipse 79" cx="17.5" cy="17" rx="17.5" ry="17" transform="translate(-0.208 0.412)" fill="#3e9645"/>
    <path id="Path_3254" data-name="Path 3254" d="M23.293,31.709a2.459,2.459,0,0,1-1.744-.722l-6.668-6.67a2.467,2.467,0,1,1,3.488-3.488l6.668,6.67a2.467,2.467,0,0,1-1.744,4.211Z" transform="translate(-8.668 -6.041)" fill="#fff"/>
    <path id="Path_3255" data-name="Path 3255" d="M22.707,32.042a2.467,2.467,0,0,1-1.744-4.211L31.42,17.373a2.467,2.467,0,1,1,3.488,3.488L24.452,31.32A2.459,2.459,0,0,1,22.707,32.042Z" transform="translate(-8.083 -6.373)" fill="#fff"/>
  </g>
</svg>
