<svg xmlns="http://www.w3.org/2000/svg" width="17.97" height="18" viewBox="0 0 17.97 18">
  <path id="icons8-squared_menu" d="M8.85,7A1.862,1.862,0,0,0,7,8.85v1.586a1.862,1.862,0,0,0,1.85,1.85h1.586a1.862,1.862,0,0,0,1.85-1.85V8.85A1.862,1.862,0,0,0,10.435,7ZM21.535,7a1.862,1.862,0,0,0-1.85,1.85v1.586a1.862,1.862,0,0,0,1.85,1.85H23.12a1.862,1.862,0,0,0,1.85-1.85V8.85A1.862,1.862,0,0,0,23.12,7Zm-6.342.03a1.862,1.862,0,0,0-1.85,1.85v1.586a1.862,1.862,0,0,0,1.85,1.85h1.586a1.862,1.862,0,0,0,1.85-1.85V8.88a1.862,1.862,0,0,0-1.85-1.85ZM8.85,8.586h1.586a.252.252,0,0,1,.264.264v1.586a.252.252,0,0,1-.264.264H8.85a.252.252,0,0,1-.264-.264V8.85A.252.252,0,0,1,8.85,8.586Zm12.685,0H23.12a.252.252,0,0,1,.264.264v1.586a.252.252,0,0,1-.264.264H21.535a.252.252,0,0,1-.264-.264V8.85A.252.252,0,0,1,21.535,8.586Zm-6.342.03h1.586a.252.252,0,0,1,.264.264v1.586a.252.252,0,0,1-.264.264H15.192a.252.252,0,0,1-.264-.264V8.88A.252.252,0,0,1,15.192,8.616Zm-6.342,4.7A1.862,1.862,0,0,0,7,15.162v1.586A1.862,1.862,0,0,0,8.85,18.6h1.586a1.862,1.862,0,0,0,1.85-1.85V15.162a1.862,1.862,0,0,0-1.85-1.85Zm12.685,0a1.862,1.862,0,0,0-1.85,1.85v1.586a1.862,1.862,0,0,0,1.85,1.85H23.12a1.862,1.862,0,0,0,1.85-1.85V15.162a1.862,1.862,0,0,0-1.85-1.85Zm-6.342.03a1.862,1.862,0,0,0-1.85,1.85v1.586a1.862,1.862,0,0,0,1.85,1.85h1.586a1.862,1.862,0,0,0,1.85-1.85V15.192a1.862,1.862,0,0,0-1.85-1.85ZM8.85,14.9h1.586a.252.252,0,0,1,.264.264v1.586a.252.252,0,0,1-.264.264H8.85a.252.252,0,0,1-.264-.264V15.162A.253.253,0,0,1,8.85,14.9Zm12.685,0H23.12a.252.252,0,0,1,.264.264v1.586a.252.252,0,0,1-.264.264H21.535a.252.252,0,0,1-.264-.264V15.162A.253.253,0,0,1,21.535,14.9Zm-6.342.03h1.586a.252.252,0,0,1,.264.264v1.586a.252.252,0,0,1-.264.264H15.192a.252.252,0,0,1-.264-.264V15.192A.252.252,0,0,1,15.192,14.928ZM8.85,19.685A1.862,1.862,0,0,0,7,21.535V23.12a1.862,1.862,0,0,0,1.85,1.85h1.586a1.862,1.862,0,0,0,1.85-1.85V21.535a1.862,1.862,0,0,0-1.85-1.85Zm12.685,0a1.862,1.862,0,0,0-1.85,1.85V23.12a1.862,1.862,0,0,0,1.85,1.85H23.12a1.862,1.862,0,0,0,1.85-1.85V21.535a1.862,1.862,0,0,0-1.85-1.85Zm-6.342.03a1.862,1.862,0,0,0-1.85,1.85V23.15A1.862,1.862,0,0,0,15.192,25h1.586a1.862,1.862,0,0,0,1.85-1.85V21.565a1.862,1.862,0,0,0-1.85-1.85ZM8.85,21.27h1.586a.252.252,0,0,1,.264.264V23.12a.252.252,0,0,1-.264.264H8.85a.252.252,0,0,1-.264-.264V21.535A.252.252,0,0,1,8.85,21.27Zm12.685,0H23.12a.252.252,0,0,1,.264.264V23.12a.252.252,0,0,1-.264.264H21.535a.252.252,0,0,1-.264-.264V21.535A.252.252,0,0,1,21.535,21.27Zm-6.342.03h1.586a.252.252,0,0,1,.264.264V23.15a.252.252,0,0,1-.264.264H15.192a.252.252,0,0,1-.264-.264V21.565A.252.252,0,0,1,15.192,21.3Z" transform="translate(-7 -7)" fill="#495670"/>
</svg>
