<svg xmlns="http://www.w3.org/2000/svg" width="18" height="18" viewBox="0 0 18 18">
  <path id="icons8-list" d="M6.184,5A1.2,1.2,0,0,0,5,6.184V9.026a1.2,1.2,0,0,0,1.184,1.184H9.026a1.2,1.2,0,0,0,1.184-1.184V6.184A1.2,1.2,0,0,0,9.026,5Zm.237,1.421H8.789V8.789H6.421Zm5.921.474a.711.711,0,1,0,0,1.421h9.947a.711.711,0,1,0,0-1.421Zm-6.158,4.5A1.2,1.2,0,0,0,5,12.579v2.842a1.2,1.2,0,0,0,1.184,1.184H9.026a1.2,1.2,0,0,0,1.184-1.184V12.579a1.2,1.2,0,0,0-1.184-1.184Zm.237,1.421H8.789v2.368H6.421Zm5.921.474a.711.711,0,1,0,0,1.421h9.947a.711.711,0,1,0,0-1.421Zm-6.158,4.5A1.2,1.2,0,0,0,5,18.974v2.842A1.2,1.2,0,0,0,6.184,23H9.026a1.2,1.2,0,0,0,1.184-1.184V18.974a1.2,1.2,0,0,0-1.184-1.184Zm.237,1.421H8.789v2.368H6.421Zm5.921.474a.711.711,0,1,0,0,1.421h9.947a.711.711,0,1,0,0-1.421Z" transform="translate(-5 -5)" fill="#495670"/>
</svg>
