<svg xmlns="http://www.w3.org/2000/svg" width="15.556" height="14" viewBox="0 0 15.556 14">
  <path id="icons8-user_groups" d="M7.5,7a2.316,2.316,0,0,0-1.748.743,2.455,2.455,0,0,0,0,3.181,2.316,2.316,0,0,0,1.748.743,2.316,2.316,0,0,0,1.748-.743,2.455,2.455,0,0,0,0-3.181A2.316,2.316,0,0,0,7.5,7Zm8.556,0a2.316,2.316,0,0,0-1.748.743,2.455,2.455,0,0,0,0,3.181,2.429,2.429,0,0,0,3.5,0,2.455,2.455,0,0,0,0-3.181A2.316,2.316,0,0,0,16.056,7ZM7.5,8.167a1.075,1.075,0,0,1,.877.351,1.292,1.292,0,0,1,0,1.632A1.075,1.075,0,0,1,7.5,10.5a1.075,1.075,0,0,1-.877-.351,1.292,1.292,0,0,1,0-1.632A1.075,1.075,0,0,1,7.5,8.167Zm8.556,0a1.075,1.075,0,0,1,.877.351,1.292,1.292,0,0,1,0,1.632,1.27,1.27,0,0,1-1.753,0,1.292,1.292,0,0,1,0-1.632A1.075,1.075,0,0,1,16.056,8.167Zm-4.278,2.722a2.316,2.316,0,0,0-1.748.743,2.455,2.455,0,0,0,0,3.181,2.429,2.429,0,0,0,3.5,0,2.455,2.455,0,0,0,0-3.181A2.316,2.316,0,0,0,11.778,10.889Zm0,1.167a1.075,1.075,0,0,1,.877.351,1.292,1.292,0,0,1,0,1.632,1.075,1.075,0,0,1-.877.351,1.075,1.075,0,0,1-.877-.351,1.292,1.292,0,0,1,0-1.632A1.075,1.075,0,0,1,11.778,12.056Zm-6.417.389A1.363,1.363,0,0,0,4,13.806v.972c0,1.307,1.536,2.333,3.5,2.333h.082a2.148,2.148,0,0,1,1.224-1.388,3.81,3.81,0,0,1-1.306.222c-1.334,0-2.333-.614-2.333-1.167v-.972a.193.193,0,0,1,.194-.194H8.69a3.18,3.18,0,0,1,.074-1.167Zm9.431,0a3.18,3.18,0,0,1,.074,1.167h3.329a.193.193,0,0,1,.194.194v.972c0,.552-1,1.167-2.333,1.167a3.81,3.81,0,0,1-1.306-.222,2.148,2.148,0,0,1,1.224,1.388h.082c1.964,0,3.5-1.027,3.5-2.333v-.972a1.363,1.363,0,0,0-1.361-1.361ZM9.639,16.333a1.37,1.37,0,0,0-1.361,1.361v.972A2.1,2.1,0,0,0,9.416,20.4a4.609,4.609,0,0,0,2.362.6,4.609,4.609,0,0,0,2.362-.6,2.1,2.1,0,0,0,1.138-1.738v-.972a1.37,1.37,0,0,0-1.361-1.361Zm0,1.167h4.278a.186.186,0,0,1,.194.194v.972c0,.22-.156.488-.571.738a3.541,3.541,0,0,1-1.762.429,3.541,3.541,0,0,1-1.762-.429c-.416-.249-.571-.517-.571-.738v-.972A.186.186,0,0,1,9.639,17.5Z" transform="translate(-4 -7)" fill="#800120"/>
</svg>
