<svg xmlns="http://www.w3.org/2000/svg" width="17.143" height="18" viewBox="0 0 17.143 18">
  <path id="icons8-conference" d="M12.571,3a2.138,2.138,0,0,0-1.605.685,2.247,2.247,0,0,0,0,2.916,2.225,2.225,0,0,0,3.211,0,2.247,2.247,0,0,0,0-2.916A2.138,2.138,0,0,0,12.571,3Zm0,1.286a.771.771,0,0,1,.645.253.965.965,0,0,1,0,1.209A.771.771,0,0,1,12.571,6a.771.771,0,0,1-.645-.253.965.965,0,0,1,0-1.209A.771.771,0,0,1,12.571,4.286ZM7.857,5.571A2.552,2.552,0,0,0,5.93,6.39a2.706,2.706,0,0,0,0,3.506,2.552,2.552,0,0,0,1.927.819A2.552,2.552,0,0,0,9.784,9.9a2.706,2.706,0,0,0,0-3.506A2.552,2.552,0,0,0,7.857,5.571Zm9.429,0a2.552,2.552,0,0,0-1.927.819,2.706,2.706,0,0,0,0,3.506,2.677,2.677,0,0,0,3.854,0,2.706,2.706,0,0,0,0-3.506A2.552,2.552,0,0,0,17.286,5.571ZM7.857,6.857a1.185,1.185,0,0,1,.966.387,1.424,1.424,0,0,1,0,1.8,1.185,1.185,0,0,1-.966.387,1.185,1.185,0,0,1-.966-.387,1.424,1.424,0,0,1,0-1.8A1.185,1.185,0,0,1,7.857,6.857Zm9.429,0a1.185,1.185,0,0,1,.966.387,1.424,1.424,0,0,1,0,1.8,1.185,1.185,0,0,1-.966.387,1.185,1.185,0,0,1-.966-.387,1.424,1.424,0,0,1,0-1.8A1.185,1.185,0,0,1,17.286,6.857Zm-4.714,3a2.552,2.552,0,0,0-1.927.819,2.706,2.706,0,0,0,0,3.506,2.677,2.677,0,0,0,3.854,0,2.706,2.706,0,0,0,0-3.506A2.552,2.552,0,0,0,12.571,9.857Zm0,1.286a1.185,1.185,0,0,1,.966.387,1.424,1.424,0,0,1,0,1.8,1.185,1.185,0,0,1-.966.387,1.185,1.185,0,0,1-.966-.387,1.424,1.424,0,0,1,0-1.8A1.185,1.185,0,0,1,12.571,11.143ZM5.5,11.571a1.5,1.5,0,0,0-1.5,1.5v1.071c0,1.44,1.693,2.571,3.857,2.571h.09A2.367,2.367,0,0,1,9.3,15.184a4.2,4.2,0,0,1-1.44.244c-1.47,0-2.571-.677-2.571-1.286V13.071a.212.212,0,0,1,.214-.214H9.169a3.5,3.5,0,0,1,.081-1.286Zm10.393,0a3.505,3.505,0,0,1,.081,1.286h3.669a.212.212,0,0,1,.214.214v1.071c0,.609-1.1,1.286-2.571,1.286a4.2,4.2,0,0,1-1.44-.244,2.367,2.367,0,0,1,1.349,1.53h.09c2.164,0,3.857-1.131,3.857-2.571V13.071a1.5,1.5,0,0,0-1.5-1.5Zm-5.679,4.286a1.51,1.51,0,0,0-1.5,1.5v1.071a2.311,2.311,0,0,0,1.254,1.915,5.08,5.08,0,0,0,2.6.656,5.08,5.08,0,0,0,2.6-.656,2.311,2.311,0,0,0,1.254-1.915V17.357a1.51,1.51,0,0,0-1.5-1.5Zm0,1.286h4.714a.2.2,0,0,1,.214.214v1.071c0,.243-.171.538-.629.813a3.9,3.9,0,0,1-1.942.473,3.9,3.9,0,0,1-1.942-.473c-.458-.275-.629-.57-.629-.813V17.357A.2.2,0,0,1,10.214,17.143Z" transform="translate(-4 -3)"/>
</svg>
