<svg xmlns="http://www.w3.org/2000/svg" width="10.177" height="14" viewBox="0 0 10.177 14">
  <path id="icons8-prize" d="M13.094,2.021a.478.478,0,0,0-.326.138l-.783.775-1.066-.28a.478.478,0,0,0-.582.336l-.29,1.063-1.063.29a.478.478,0,0,0-.336.581l.279,1.066-.775.783a.478.478,0,0,0,0,.671l.775.783-.28,1.065a.478.478,0,0,0,.336.582l1.063.29.2.715a.478.478,0,0,0,0,.061v4.6a.478.478,0,0,0,.742.4l2.034-1.356a.156.156,0,0,1,.177,0l2.034,1.356a.478.478,0,0,0,.742-.4v-4.6a.477.477,0,0,0,0-.061l.2-.715,1.062-.29a.478.478,0,0,0,.336-.581L17.28,8.229l.775-.783a.478.478,0,0,0,0-.671l-.775-.783.28-1.066a.478.478,0,0,0-.336-.582l-1.063-.29-.29-1.063a.478.478,0,0,0-.582-.336l-1.066.28-.783-.775a.478.478,0,0,0-.346-.138ZM13.1,3.17l.641.634a.478.478,0,0,0,.457.122l.872-.229.238.87a.478.478,0,0,0,.335.335l.869.238-.229.871a.478.478,0,0,0,.122.457l.634.642-.634.641a.478.478,0,0,0-.122.457l.229.872-.87.237a.478.478,0,0,0-.335.335l-.237.869-.872-.228a.478.478,0,0,0-.457.122l-.641.634-.641-.634a.478.478,0,0,0-.457-.122l-.872.228L10.9,9.651a.478.478,0,0,0-.335-.335l-.869-.237.229-.872A.478.478,0,0,0,9.8,7.751L9.165,7.11,9.8,6.468a.478.478,0,0,0,.122-.457l-.229-.872.87-.237a.478.478,0,0,0,.335-.335l.237-.869.872.229a.478.478,0,0,0,.457-.122Zm-1.119,8.114.783.775a.478.478,0,0,0,.671,0l.783-.775.791.208v3.159l-1.292-.861a1.117,1.117,0,0,0-1.236,0l-1.292.861V11.492Z" transform="translate(-8.016 -2.021)" fill="#fff" opacity="0.9"/>
</svg>
