<svg xmlns="http://www.w3.org/2000/svg" width="14" height="14" viewBox="0 0 14 14">
  <path id="icons8-qr_code" d="M7.75,6A1.759,1.759,0,0,0,6,7.75v2.722a1.759,1.759,0,0,0,1.75,1.75h2.722a1.759,1.759,0,0,0,1.75-1.75V7.75A1.759,1.759,0,0,0,10.472,6Zm7.778,0a1.759,1.759,0,0,0-1.75,1.75v2.722a1.759,1.759,0,0,0,1.75,1.75H18.25A1.759,1.759,0,0,0,20,10.472V7.75A1.759,1.759,0,0,0,18.25,6ZM7.75,7.167h2.722a.575.575,0,0,1,.583.583v2.722a.575.575,0,0,1-.583.583H7.75a.575.575,0,0,1-.583-.583V7.75A.575.575,0,0,1,7.75,7.167Zm7.778,0H18.25a.575.575,0,0,1,.583.583v2.722a.575.575,0,0,1-.583.583H15.528a.575.575,0,0,1-.583-.583V7.75A.575.575,0,0,1,15.528,7.167ZM8.333,8.333V9.889H9.889V8.333Zm7.778,0V9.889h1.556V8.333ZM7.75,13.778A1.759,1.759,0,0,0,6,15.528V18.25A1.759,1.759,0,0,0,7.75,20h2.722a1.759,1.759,0,0,0,1.75-1.75V15.528a1.759,1.759,0,0,0-1.75-1.75Zm6.028,0v2.139h2.139V13.778Zm2.139,2.139v1.944h1.944V15.917Zm1.944,0H20V13.778H17.861Zm0,1.944V20H20V17.861Zm-1.944,0H13.778V20h2.139ZM7.75,14.944h2.722a.575.575,0,0,1,.583.583V18.25a.575.575,0,0,1-.583.583H7.75a.575.575,0,0,1-.583-.583V15.528A.575.575,0,0,1,7.75,14.944Zm.583,1.167v1.556H9.889V16.111Z" transform="translate(-6 -6)" fill="#495670"/>
</svg>
