<svg xmlns="http://www.w3.org/2000/svg" width="14.4" height="18" viewBox="0 0 14.4 18">
  <path id="icons8-spreadsheet_file" d="M10.025,4A2.035,2.035,0,0,0,8,6.025v13.95A2.035,2.035,0,0,0,10.025,22h10.35A2.035,2.035,0,0,0,22.4,19.975v-9.45a.675.675,0,0,0-.2-.477l-.007-.007L16.352,4.2a.675.675,0,0,0-.477-.2Zm0,1.35H15.2V9.175A2.035,2.035,0,0,0,17.225,11.2H21.05v8.775a.665.665,0,0,1-.675.675H10.025a.665.665,0,0,1-.675-.675V6.025A.665.665,0,0,1,10.025,5.35ZM16.55,6.3,20.1,9.85H17.225a.665.665,0,0,1-.675-.675ZM11.825,13a.675.675,0,1,0,0,1.35h2.25a.675.675,0,1,0,0-1.35Zm4.5,0a.675.675,0,1,0,0,1.35h2.25a.675.675,0,1,0,0-1.35Zm-4.5,2.25a.675.675,0,1,0,0,1.35h2.25a.675.675,0,1,0,0-1.35Zm4.5,0a.675.675,0,1,0,0,1.35h2.25a.675.675,0,1,0,0-1.35Zm-4.5,2.25a.675.675,0,1,0,0,1.35h2.25a.675.675,0,1,0,0-1.35Zm4.5,0a.675.675,0,1,0,0,1.35h2.25a.675.675,0,1,0,0-1.35Z" transform="translate(-8 -4)" fill="#495670"/>
</svg>
