<svg xmlns="http://www.w3.org/2000/svg" width="20" height="20" viewBox="0 0 20 20">
  <g id="icons8-table_top_view" transform="translate(-1.172 -1.172)">
    <circle id="Ellipse_11" data-name="Ellipse 11" cx="5.541" cy="5.541" r="5.541" transform="translate(5.631 5.631)" fill="#800120"/>
    <rect id="Rectangle_162" data-name="Rectangle 162" width="3.694" height="3.694" transform="matrix(0.707, -0.707, 0.707, 0.707, 1.172, 3.784)" fill="#800120"/>
    <rect id="Rectangle_163" data-name="Rectangle 163" width="3.694" height="3.694" transform="matrix(0.707, 0.707, -0.707, 0.707, 18.56, 1.172)" fill="#800120"/>
    <rect id="Rectangle_165" data-name="Rectangle 165" width="3.694" height="3.694" transform="matrix(0.707, 0.707, -0.707, 0.707, 18.56, 15.947)" fill="#800120"/>
    <circle id="Ellipse_12" data-name="Ellipse 12" cx="5.541" cy="5.541" r="5.541" transform="translate(5.631 5.631)" fill="#800120"/>
    <path id="Path_3242" data-name="Path 3242" d="M0,0H3.694V3.694H0Z" transform="matrix(0.707, -0.707, 0.707, 0.707, 1.172, 3.784)" fill="#800120"/>
    <rect id="Rectangle_167" data-name="Rectangle 167" width="3.694" height="3.694" transform="matrix(0.707, 0.707, -0.707, 0.707, 18.56, 1.172)" fill="#800120"/>
    <rect id="Rectangle_168" data-name="Rectangle 168" width="3.694" height="3.694" transform="matrix(0.707, -0.707, 0.707, 0.707, 1.172, 18.56)" fill="#800120"/>
    <rect id="Rectangle_169" data-name="Rectangle 169" width="3.694" height="3.694" transform="matrix(0.707, 0.707, -0.707, 0.707, 18.56, 15.947)" fill="#800120"/>
  </g>
</svg>
