<svg xmlns="http://www.w3.org/2000/svg" width="38" height="39" viewBox="0 0 38 39">
  <g id="Group_88200" data-name="Group 88200" transform="translate(1 1)">
    <g id="Group_105" data-name="Group 105" transform="translate(5 5.5)">
      <g id="Rectangle_70" data-name="Rectangle 70" fill="#11a750" stroke="#495670" stroke-width="1">
        <rect width="26" height="26" rx="2" stroke="none"/>
        <rect x="0.5" y="0.5" width="25" height="25" rx="1.5" fill="none"/>
      </g>
    </g>
    <g id="Rectangle_1810" data-name="Rectangle 1810" transform="translate(0 13.5)" fill="#11a750" stroke="#495670" stroke-width="1">
      <path d="M2,0H5A0,0,0,0,1,5,0V10a0,0,0,0,1,0,0H2A2,2,0,0,1,0,8V2A2,2,0,0,1,2,0Z" stroke="none"/>
      <path d="M2-.5H5a.5.5,0,0,1,.5.5V10a.5.5,0,0,1-.5.5H2A2.5,2.5,0,0,1-.5,8V2A2.5,2.5,0,0,1,2-.5Z" fill="none"/>
    </g>
    <g id="Rectangle_1811" data-name="Rectangle 1811" transform="translate(22.839) rotate(90)" fill="#11a750" stroke="#495670" stroke-width="1">
      <path d="M2,0H5A0,0,0,0,1,5,0V10a0,0,0,0,1,0,0H2A2,2,0,0,1,0,8V2A2,2,0,0,1,2,0Z" stroke="none"/>
      <path d="M2-.5H5a.5.5,0,0,1,.5.5V10a.5.5,0,0,1-.5.5H2A2.5,2.5,0,0,1-.5,8V2A2.5,2.5,0,0,1,2-.5Z" fill="none"/>
    </g>
    <g id="Rectangle_1813" data-name="Rectangle 1813" transform="translate(12.839 37) rotate(-90)" fill="#11a750" stroke="#495670" stroke-width="1">
      <path d="M2,0H5A0,0,0,0,1,5,0V10a0,0,0,0,1,0,0H2A2,2,0,0,1,0,8V2A2,2,0,0,1,2,0Z" stroke="none"/>
      <path d="M2-.5H5a.5.5,0,0,1,.5.5V10a.5.5,0,0,1-.5.5H2A2.5,2.5,0,0,1-.5,8V2A2.5,2.5,0,0,1,2-.5Z" fill="none"/>
    </g>
    <g id="Rectangle_1812" data-name="Rectangle 1812" transform="translate(36 23.5) rotate(180)" fill="#11a750" stroke="#495670" stroke-width="1">
      <path d="M2,0H5A0,0,0,0,1,5,0V10a0,0,0,0,1,0,0H2A2,2,0,0,1,0,8V2A2,2,0,0,1,2,0Z" stroke="none"/>
      <path d="M2-.5H5a.5.5,0,0,1,.5.5V10a.5.5,0,0,1-.5.5H2A2.5,2.5,0,0,1-.5,8V2A2.5,2.5,0,0,1,2-.5Z" fill="none"/>
    </g>
  </g>
</svg>
